PathFileType	4	(X/Y/Z)	Kaydara																																																																																																																																																																																																																												
DataRate	CameraRate	NumFrames	NumMarkers	Units	OrigDataRate	OrigDataStartFrame	OrigNumFrames																																																																																																																																																																																																																								
60	60	4	74	mm	60	1711	181																																																																																																																																																																																																																								
Frame#	Time	N_lasi			N_rasi			N_rpsi			N_lpsi			N_fneck			N_bneck			N_fhead			N_rhead			N_lhead			N_rshld			N_relbtop			N_relbext			N_relblow			N_rwrext			N_rwrtop			N_rwrlow			N_lshld			N_lelblow			N_lelbtop			N_lwrext			N_lwrtop			N_lwrlow			N_rtopleg			N_ltopleg			N_rkneefr			N_rkneebk			N_rkneeis			N_lkneefr			N_lknssbk			N_lkneeis			N_rankfr			N_rankis			N_rankbk			N_lankfr			N_lankbk			N_lankis			D_lasi			D_rasi			D_lpsi			D_fneck			D_bneck			D_fhead			D_rhead			D_lhead			D_rshld			D_relbtop			D_relbext			D_relblow			D_rwrext			D_rwrtop			D_rwrlow			D_lshld			D_lelbext			D_lelblow			D_lelbtop			D_lwrext			D_lwrtop			D_lwrlow			D_rtopleg			D_ltopleg			D_rkneefr			D_rkneebk			D_rkneeis			D_lkneefr			D_lknssbk			D_lkneeis			D_rankfr			D_rankis			D_rankbk			D_lankfr			D_lankbk			D_lankis			D_rpsi			N_lelbext		
		X1	Y1	Z1	X2	Y2	Z2	X3	Y3	Z3	X4	Y4	Z4	X5	Y5	Z5	X6	Y6	Z6	X7	Y7	Z7	X8	Y8	Z8	X9	Y9	Z9	X10	Y10	Z10	X11	Y11	Z11	X12	Y12	Z12	X13	Y13	Z13	X14	Y14	Z14	X15	Y15	Z15	X16	Y16	Z16	X17	Y17	Z17	X18	Y18	Z18	X19	Y19	Z19	X20	Y20	Z20	X21	Y21	Z21	X22	Y22	Z22	X23	Y23	Z23	X24	Y24	Z24	X25	Y25	Z25	X26	Y26	Z26	X27	Y27	Z27	X28	Y28	Z28	X29	Y29	Z29	X30	Y30	Z30	X31	Y31	Z31	X32	Y32	Z32	X33	Y33	Z33	X34	Y34	Z34	X35	Y35	Z35	X36	Y36	Z36	X37	Y37	Z37	X38	Y38	Z38	X39	Y39	Z39	X40	Y40	Z40	X41	Y41	Z41	X42	Y42	Z42	X43	Y43	Z43	X44	Y44	Z44	X45	Y45	Z45	X46	Y46	Z46	X47	Y47	Z47	X48	Y48	Z48	X49	Y49	Z49	X50	Y50	Z50	X51	Y51	Z51	X52	Y52	Z52	X53	Y53	Z53	X54	Y54	Z54	X55	Y55	Z55	X56	Y56	Z56	X57	Y57	Z57	X58	Y58	Z58	X59	Y59	Z59	X60	Y60	Z60	X61	Y61	Z61	X62	Y62	Z62	X63	Y63	Z63	X64	Y64	Z64	X65	Y65	Z65	X66	Y66	Z66	X67	Y67	Z67	X68	Y68	Z68	X69	Y69	Z69	X70	Y70	Z70	X71	Y71	Z71	X72	Y72	Z72	X73	Y73	Z73	X74	Y74	Z74
																																																																																																																																																																																																																															
91	28.5	-532.79224	1239.98306	-81.62992	-509.57344	1264.04274	-311.42738	-247.41426	1233.47176	-358.4042	-271.48836	1223.00568	-6.40311	-401.48836	1613.00568	-185.40311	-241.80607	1665.64545	-184.71676	-434.47376	1807.89337	-192.48421	-243.12523	1770.16205	-248.20473	-294.42587	1775.78049	-100.50033	-243.44997	1653.1543	-341.87523	-299.90755	1694.90662	-609.66873	-382.69184	1704.38812	-571.42258	-295.97095	1755.91629	-537.81334	-398.65509	2037.47803	-663.10104	-353.40763	2050.9465	-654.5681	-339.41227	2036.81366	-610.34985	-264.16494	1618.97919	6.56758	-280.78207	1605.21622	280.28069	-236.46608	1529.89838	285.67364	-244.12886	1576.63544	601.33907	-284.11627	1597.58865	613.75629	-311.70574	1551.7775	605.55882	-405.86102	1064.03671	-445.10288	-371.14822	1016.3607	44.67322	-431.83147	561.91364	-257.54244	-326.09489	577.8347	-326.49818	-368.18123	564.70318	-165.19835	-379.87144	539.36024	-99.55039	-253.25819	555.72418	-41.44007	-256.38338	546.93611	-191.01784	-298.11625	138.95186	-269.48738	-299.0547	153.79361	-189.67659	-217.3159	141.2723	-215.66589	-331.89919	192.81454	-118.45944	-258.42716	185.45338	-76.61171	-294.42716	164.45338	-160.61171	-460.16628	1037.41974	1742.82227	-424.04297	1056.88057	1456.38535	-261.48811	1131.14365	1745.92575	-412.44179	1569.4986	1591.19522	-271.3455	1587.09564	1599.65637	-426.0714	1791.15326	1596.38657	-271.24702	1724.17221	1521.53183	-283.56314	1718.7941	1675.55878	-325.36285	1563.89267	1432.60223	-401.12858	1454.33304	1149.49028	-441.94569	1491.67923	1200.05486	-344.70215	1508.68195	1189.91936	-454.13261	1739.85825	1162.69699	-396.50795	1746.74759	1152.30904	-387.31609	1729.97162	1203.00728	-318.88243	1563.26157	1789.17374	-408.18348	1471.71982	2049.41162	-321.6489	1535.36591	2039.33746	-329.12678	1456.3121	2051.98669	-346.80222	1517.81754	2303.20602	-379.55463	1546.08398	2295.33081	-418.55064	1515.39047	2283.42163	-331.14079	1004.73747	1409.33014	-319.50752	1009.77692	1809.75693	-373.87684	455.36869	1450.68665	-274.05933	490.83447	1423.30032	-282.19923	458.29166	1544.00833	-357.89028	448.34545	1771.21872	-245.07469	485.86182	1787.44904	-316.78408	443.88325	1679.8735	-323.74619	130.34799	1417.91077	-294.93267	126.50296	1482.70691	-243.45055	127.79325	1418.34595	-323.22365	134.97418	1792.38571	-250.3191	124.81641	1806.65024	-293.73821	124.04743	1733.11737	-234.23264	1145.70107	1528.71597	-326.03989	1512.84836	289.63243
92	28.517	-532.78481	1239.73999	-81.78362	-509.4709	1263.79051	-311.62533	-247.27652	1233.46268	-358.4325	-271.55111	1222.97707	-6.4817	-401.55111	1612.97707	-185.4817	-241.48569	1666.07071	-184.5496	-434.92188	1807.73575	-192.48383	-243.43998	1770.09277	-248.29561	-295.0412	1775.75485	-100.29666	-243.58774	1653.29468	-341.82819	-300.08356	1694.84268	-609.70173	-383.05798	1704.05746	-571.80779	-296.35218	1755.89386	-537.86602	-400.03883	2036.91635	-664.40613	-354.86172	2050.79666	-655.77728	-341.08097	2036.86798	-611.58211	-264.19949	1618.92914	6.69805	-280.67682	1604.48318	280.49061	-236.53357	1529.15192	285.81793	-244.79179	1575.66681	601.20384	-284.97677	1596.56204	613.87756	-312.30068	1550.66406	605.5426	-405.52452	1063.73734	-445.0399	-371.2294	1016.30211	44.63414	-431.65539	561.9101	-257.63849	-325.87654	577.80968	-326.55952	-368.03665	564.67506	-165.26209	-379.75769	539.37511	-99.68549	-253.22985	555.71785	-41.46072	-256.23755	546.94447	-191.04107	-298.06574	138.92784	-269.51077	-299.07623	153.79168	-189.6595	-217.26259	141.23517	-215.67822	-331.88126	192.82314	-118.4852	-258.41278	185.44693	-76.61549	-294.41278	164.44693	-160.61549	-460.31044	1037.45789	1742.75665	-424.1114	1056.86234	1456.30676	-261.52094	1131.19507	1745.90149	-412.27837	1569.42535	1591.10214	-271.20234	1587.08755	1599.57733	-426.08727	1790.95947	1596.17126	-271.13623	1724.18472	1521.27167	-283.53205	1718.95721	1675.37247	-325.16403	1563.78662	1432.48581	-400.93246	1454.18411	1149.32755	-441.83922	1491.36871	1199.96742	-344.62261	1508.51105	1189.88525	-454.28276	1739.67133	1163.01254	-396.70795	1746.62262	1152.60292	-387.58408	1729.65485	1203.56995	-318.74674	1563.2486	1789.05731	-408.31242	1471.70441	2049.21066	-321.70235	1535.3418	2039.2511	-329.22421	1456.2851	2051.95724	-347.15706	1517.80792	2302.84454	-379.87736	1546.12183	2295.19867	-418.93379	1515.34714	2283.18649	-331.21471	1004.73618	1409.30084	-319.62723	1009.73526	1809.76364	-373.94814	455.36518	1450.5838	-274.09794	490.83561	1423.26965	-282.17596	458.34255	1544.03824	-357.95189	448.31314	1771.20941	-245.18562	485.85072	1787.39151	-316.87634	443.88035	1679.84222	-323.73055	130.34717	1417.87689	-294.93809	126.51584	1482.70401	-243.44038	127.80796	1418.33176	-323.23006	134.96869	1792.40143	-250.35036	124.84421	1806.63681	-293.79004	124.03065	1733.1134	-234.30914	1145.6694	1528.71674	-326.15456	1512.19986	289.70093
93	28.533	-532.74529	1239.51576	-82.03224	-509.35394	1263.57864	-311.86665	-247.17371	1233.51776	-358.52089	-271.62544	1222.93198	-6.5489	-401.62544	1612.93198	-185.5489	-241.68499	1666.07086	-184.50886	-435.28275	1807.51892	-192.52613	-243.70665	1770.37018	-248.08939	-295.53143	1775.76065	-100.24002	-243.61225	1653.56094	-341.88812	-299.94488	1695.25467	-609.75056	-383.03566	1704.04434	-572.2028	-296.61102	1756.09604	-537.9549	-401.72729	2036.48193	-666.11679	-356.81026	2051.01349	-657.23274	-343.09792	2037.34451	-612.86243	-264.30071	1618.8945	6.87268	-280.8783	1603.95126	280.63101	-236.50394	1528.63281	285.91742	-245.69754	1575.10529	601.66897	-285.75205	1595.52444	613.90068	-313.00249	1549.58923	605.52788	-405.15087	1063.6235	-445.09613	-371.29555	1016.2104	44.53439	-431.5007	561.91227	-257.73985	-325.66597	577.81109	-326.61377	-367.93877	564.68761	-165.3134	-379.76254	539.36775	-99.71257	-253.14569	555.71442	-41.52352	-256.12373	546.93546	-191.09102	-298.03829	138.91119	-269.53196	-298.98634	153.75274	-189.68216	-217.22368	141.21105	-215.66811	-331.87687	192.82696	-118.53045	-258.42272	185.45048	-76.63775	-294.42272	164.45048	-160.63775	-460.37163	1037.49794	1742.68585	-424.18259	1056.85951	1456.23032	-261.75798	1131.12358	1745.79971	-412.14462	1569.34036	1591.01456	-271.06203	1587.10785	1599.47739	-426.07357	1790.73944	1595.8905	-271.03027	1724.21158	1521.09909	-283.39674	1718.95828	1675.23682	-325.00641	1563.63708	1432.34146	-400.81802	1453.97476	1149.13406	-441.85398	1491.04965	1199.88937	-344.46228	1508.25882	1189.65965	-454.52843	1739.2662	1163.45116	-397.08675	1746.36337	1152.89215	-387.69939	1729.35181	1203.9035	-318.66232	1563.24677	1789.02695	-408.37547	1471.63788	2049.0419	-321.80286	1535.28366	2039.16275	-329.29222	1456.25519	2051.97754	-347.50343	1517.81555	2302.78763	-380.25974	1546.18637	2295.01389	-419.06303	1515.46371	2283.19031	-331.26076	1004.72847	1409.24911	-319.79185	1009.65111	1809.61823	-374.02306	455.37014	1450.53604	-274.17406	490.84251	1423.20053	-282.30251	458.33199	1543.96912	-358.03078	448.30406	1771.12595	-245.23785	485.83561	1787.35886	-316.95837	443.88412	1679.8114	-323.75282	130.30646	1417.8772	-294.99401	126.43447	1482.63016	-243.46643	127.81075	1418.29376	-323.24871	134.99989	1792.34985	-250.39654	124.82414	1806.58005	-293.77373	124.03581	1733.05618	-234.33056	1145.56564	1528.75397	-326.08276	1511.35468	289.66528
94	28.55	-532.70969	1239.30595	-82.32822	-509.19285	1263.47939	-312.12292	-247.06161	1233.62724	-358.61095	-271.64968	1222.88651	-6.6222	-401.64968	1612.88651	-185.6222	-241.73876	1666.10748	-184.48505	-435.5925	1807.27921	-192.60612	-243.89364	1770.52063	-247.96759	-295.73042	1775.90332	-100.419	-243.68389	1653.88	-341.90876	-299.58803	1695.93826	-609.82479	-382.74174	1704.23996	-572.73781	-296.81322	1756.51749	-537.90058	-403.62396	2036.15021	-668.3844	-359.07726	2051.29089	-658.64731	-345.87551	2037.82349	-614.08302	-264.36876	1618.78174	7.10887	-281.04954	1603.32581	280.73542	-236.39639	1528.19061	285.90199	-246.06756	1574.01566	601.48823	-286.2109	1594.86221	613.86425	-313.75269	1549.03015	605.45391	-404.78226	1063.64922	-445.24799	-371.42563	1016.10245	44.41208	-431.39599	561.92524	-257.87041	-325.45189	577.82467	-326.67213	-367.95029	564.73373	-165.36964	-379.67079	539.38259	-99.84357	-253.20829	555.71709	-41.52807	-256.03878	546.93832	-191.11238	-298.00283	138.91554	-269.56825	-298.98211	153.7612	-189.70636	-217.20648	141.20968	-215.67844	-331.866	192.83197	-118.54723	-258.41734	185.44674	-76.62236	-294.41734	164.44674	-160.62236	-460.5352	1037.48116	1742.62436	-424.30977	1056.84853	1456.25809	-261.87262	1131.11786	1745.73792	-411.97838	1569.26437	1590.90881	-270.97939	1587.14417	1599.44077	-426.0508	1790.57098	1595.69824	-270.94547	1724.27185	1520.94025	-283.28493	1719.05411	1675.0589	-324.88216	1563.49976	1432.19147	-400.78331	1453.64532	1149.05724	-441.90399	1490.746	1199.90051	-344.47887	1508.00415	1189.55917	-454.83589	1738.95477	1163.88748	-397.42683	1746.06873	1153.26767	-388.08941	1729.048	1204.06227	-318.54216	1563.22205	1788.93234	-408.47919	1471.61087	2048.87207	-321.90136	1535.24826	2039.02557	-329.39259	1456.22284	2051.88629	-347.78786	1517.82486	2302.79785	-380.66021	1546.15387	2294.85291	-419.36245	1515.38879	2283.05878	-331.31561	1004.73686	1409.198	-319.89965	1009.64111	1809.48227	-374.10213	455.38132	1450.4538	-274.27601	490.8329	1423.16544	-282.33145	458.32718	1543.92151	-358.0891	448.29556	1771.10016	-245.36533	485.83588	1787.23633	-317.01822	443.86604	1679.74869	-323.7307	130.24743	1417.88162	-294.95838	126.50396	1482.62711	-243.47389	127.80252	1418.30505	-323.24261	134.97976	1792.35855	-250.41794	124.84508	1806.57516	-293.80188	124.03299	1733.06396	-234.35659	1145.46173	1528.72147	-325.78747	1510.49026	289.48647
